<svg width="24" height="24" viewBox="0 0 24 24" fill="none" xmlns="http://www.w3.org/2000/svg">
<mask id="mask0_82_5043" style="mask-type:alpha" maskUnits="userSpaceOnUse" x="0" y="0" width="24" height="24">
<rect width="24" height="24" fill="white"/>
</mask>
<g mask="url(#mask0_82_5043)">
<path d="M21.3739 4.56738C21.1278 4.27201 20.8196 4.03446 20.4713 3.87159C20.1231 3.70872 19.7432 3.62453 19.3587 3.625H5.21175L5.175 3.31788C5.09979 2.67949 4.79296 2.09089 4.31268 1.66367C3.8324 1.23645 3.21205 1.0003 2.56925 1L2.375 1C2.14294 1 1.92038 1.09219 1.75628 1.25628C1.59219 1.42038 1.5 1.64294 1.5 1.875C1.5 2.10706 1.59219 2.32962 1.75628 2.49372C1.92038 2.65781 2.14294 2.75 2.375 2.75H2.56925C2.78357 2.75003 2.99042 2.82871 3.15058 2.97113C3.31073 3.11354 3.41305 3.30978 3.43812 3.52263L4.64212 13.7601C4.76712 14.8248 5.27867 15.8066 6.07967 16.519C6.88067 17.2315 7.91537 17.625 8.98737 17.625H18.125C18.3571 17.625 18.5796 17.5328 18.7437 17.3687C18.9078 17.2046 19 16.9821 19 16.75C19 16.5179 18.9078 16.2954 18.7437 16.1313C18.5796 15.9672 18.3571 15.875 18.125 15.875H8.98737C8.4458 15.8735 7.91795 15.7045 7.47619 15.3912C7.03444 15.0779 6.7004 14.6356 6.51987 14.125H16.9499C17.9756 14.1251 18.9688 13.7647 19.7558 13.1069C20.5429 12.4491 21.0738 11.5356 21.2557 10.5261L21.9426 6.71638C22.0112 6.33838 21.9958 5.94993 21.8975 5.57856C21.7992 5.20718 21.6204 4.86197 21.3739 4.56738Z" fill="white"/>
<path d="M7.625 21.9999C8.5915 21.9999 9.375 21.2164 9.375 20.2499C9.375 19.2834 8.5915 18.4999 7.625 18.4999C6.6585 18.4999 5.875 19.2834 5.875 20.2499C5.875 21.2164 6.6585 21.9999 7.625 21.9999Z" fill="white"/>
<path d="M16.375 21.9999C17.3415 21.9999 18.125 21.2164 18.125 20.2499C18.125 19.2834 17.3415 18.4999 16.375 18.4999C15.4085 18.4999 14.625 19.2834 14.625 20.2499C14.625 21.2164 15.4085 21.9999 16.375 21.9999Z" fill="white"/>
</g>
</svg>
